<svg xmlns="http://www.w3.org/2000/svg" viewBox="0 0 960 700" width="960" height="700">
  <defs>
    <marker id="arrowA" markerWidth="10" markerHeight="7" refX="9" refY="3.5" orient="auto">
      <polygon points="0 0, 10 3.5, 0 7" fill="#7c3aed"/>
    </marker>
    <marker id="arrowB" markerWidth="10" markerHeight="7" refX="9" refY="3.5" orient="auto">
      <polygon points="0 0, 10 3.5, 0 7" fill="#10b981"/>
    </marker>
    <marker id="arrowC" markerWidth="10" markerHeight="7" refX="9" refY="3.5" orient="auto">
      <polygon points="0 0, 10 3.5, 0 7" fill="#2563eb"/>
    </marker>
    <marker id="arrowE" markerWidth="10" markerHeight="7" refX="9" refY="3.5" orient="auto">
      <polygon points="0 0, 10 3.5, 0 7" fill="#f97316"/>
    </marker>
    <marker id="arrowF" markerWidth="10" markerHeight="7" refX="9" refY="3.5" orient="auto">
      <polygon points="0 0, 10 3.5, 0 7" fill="#7c3aed"/>
    </marker>
    <marker id="arrowG" markerWidth="10" markerHeight="7" refX="9" refY="3.5" orient="auto">
      <polygon points="0 0, 10 3.5, 0 7" fill="#ef4444"/>
    </marker>
    <marker id="arrowH" markerWidth="10" markerHeight="7" refX="9" refY="3.5" orient="auto">
      <polygon points="0 0, 10 3.5, 0 7" fill="#6b7280"/>
    </marker>
    <filter id="shadowSoft" x="-20%" y="-20%" width="140%" height="160%">
      <feDropShadow dx="0" dy="3" stdDeviation="6" flood-color="#0f172a" flood-opacity="0.12"/>
    </filter>
    <filter id="shadowGlass" x="-20%" y="-20%" width="140%" height="160%">
      <feDropShadow dx="0" dy="10" stdDeviation="16" flood-color="#020617" flood-opacity="0.28"/>
    </filter>
    <style>
    text { font-family: 'Helvetica Neue', Helvetica, Arial, 'PingFang SC', 'Microsoft YaHei', sans-serif; }
    .title { font-size: 30px; font-weight: 700; fill: #111827; }
    .subtitle { font-size: 14px; font-weight: 500; fill: #6b7280; }
    .section { font-size: 13px; font-weight: 700; fill: #2563eb; letter-spacing: 1.4px; }
    .section-sub { font-size: 12px; font-weight: 500; fill: #94a3b8; }
    .node-title { font-size: 18px; font-weight: 700; fill: #111827; }
    .node-sub { font-size: 12px; font-weight: 500; fill: #6b7280; }
    .node-type { font-size: 12px; font-weight: 700; fill: #9ca3af; letter-spacing: 0.08em; }
    .arrow-label { font-size: 12px; font-weight: 600; fill: #6b7280; }
    .legend { font-size: 12px; font-weight: 500; fill: #6b7280; }
    .footnote { font-size: 12px; font-weight: 500; fill: #94a3b8; }
    </style>
  </defs>
  <rect width="960.0" height="700.0" fill="#ffffff"/>
  <text x="480.0" y="56" text-anchor="middle" class="title">notifyd — hook-capture daemon + Inbox screen</text>
  <text x="480.0" y="82" text-anchor="middle" class="subtitle">Claude Code / Codex hook events flow through a Unix socket into ainb-notifyd, then SQLite, then the Inbox</text>
  <path d="M 154.0,192.0 L 154.0,278.0" fill="none" stroke="#7c3aed" stroke-width="2.4" marker-end="url(#arrowA)"/>
  <path d="M 252.0,324.0 L 392.0,324.0" fill="none" stroke="#f97316" stroke-width="2.4" marker-end="url(#arrowE)"/>
  <path d="M 154.0,370.0 L 154.0,456.0" fill="none" stroke="#f97316" stroke-width="2.4" marker-end="url(#arrowE)" stroke-dasharray="6,4"/>
  <path d="M 472.0,278.0 L 472.0,210.0" fill="none" stroke="#7c3aed" stroke-width="2.4" marker-end="url(#arrowA)"/>
  <path d="M 154.0,540.0 L 154.0,394.0 L 339.6,394.0 L 339.6,157.0 L 360.0,157.0" fill="none" stroke="#f97316" stroke-width="2.4" marker-end="url(#arrowE)" stroke-dasharray="6,4"/>
  <path d="M 584.0,157.0 L 692.0,157.0" fill="none" stroke="#10b981" stroke-width="2.4" marker-end="url(#arrowB)"/>
  <path d="M 360.0,157.0 L 336.0,157.0 L 336.0,498.0 L 360.0,498.0" fill="none" stroke="#7c3aed" stroke-width="2.4" marker-end="url(#arrowA)"/>
  <path d="M 794.0,210.0 L 794.0,230.4 L 778.0,257.6 L 778.0,278.0" fill="none" stroke="#2563eb" stroke-width="2.4" marker-end="url(#arrowC)"/>
  <path d="M 896.0,157.0 L 924.0,157.0 L 924.0,498.0 L 896.0,498.0" fill="none" stroke="#2563eb" stroke-width="2.4" marker-end="url(#arrowC)"/>
  <rect x="56.0" y="104.0" width="196.0" height="88.0" rx="10.0" fill="#ffffff" stroke="#d1d5db" stroke-width="1.8" filter="url(#shadowSoft)"/>
  <text x="154.0" y="122.0" text-anchor="middle" class="node-type">HOOK SOURCE</text>
  <text x="154.0" y="154.0" text-anchor="middle" class="node-title">Claude Code / Codex</text>
  <text x="154.0" y="176.0" text-anchor="middle" class="node-sub">host agents fire hooks</text>
  <rect x="56.0" y="278.0" width="196.0" height="92.0" rx="10.0" fill="#ffffff" stroke="#d1d5db" stroke-width="1.8" filter="url(#shadowSoft)"/>
  <text x="154.0" y="296.0" text-anchor="middle" class="node-type">BASH HOOK</text>
  <text x="154.0" y="330.0" text-anchor="middle" class="node-title">ainb-hooks notify.sh</text>
  <text x="154.0" y="352.0" text-anchor="middle" class="node-sub">normalize to envelope</text>
  <rect x="56.0" y="456.0" width="196.0" height="84.0" rx="10.0" fill="#ffffff" stroke="#d1d5db" stroke-width="1.8" filter="url(#shadowSoft)"/>
  <text x="154.0" y="474.0" text-anchor="middle" class="node-type">FALLBACK</text>
  <text x="154.0" y="504.0" text-anchor="middle" class="node-title">fallback.jsonl</text>
  <text x="154.0" y="526.0" text-anchor="middle" class="node-sub">queue while down</text>
  <rect x="392.0" y="278.0" width="160.0" height="92.0" rx="10.0" fill="#ffffff" stroke="#d1d5db" stroke-width="1.8" filter="url(#shadowSoft)"/>
  <text x="472.0" y="296.0" text-anchor="middle" class="node-type">TRANSPORT</text>
  <text x="472.0" y="330.0" text-anchor="middle" class="node-title">notify.sock</text>
  <text x="472.0" y="352.0" text-anchor="middle" class="node-sub">Unix socket · 0600</text>
  <rect x="360.0" y="104.0" width="224.0" height="106.0" rx="10.0" fill="#ffffff" stroke="#d1d5db" stroke-width="1.8" filter="url(#shadowSoft)"/>
  <text x="472.0" y="122.0" text-anchor="middle" class="node-type">TOKIO DAEMON</text>
  <text x="472.0" y="163.0" text-anchor="middle" class="node-title">ainb-notifyd</text>
  <text x="472.0" y="185.0" text-anchor="middle" class="node-sub">accept · parse · replay</text>
  <rect x="360.0" y="456.0" width="224.0" height="84.0" rx="10.0" fill="#ffffff" stroke="#d1d5db" stroke-width="1.8" filter="url(#shadowSoft)"/>
  <text x="472.0" y="474.0" text-anchor="middle" class="node-type">DEBOUNCED 60s</text>
  <text x="472.0" y="504.0" text-anchor="middle" class="node-title">OS notification</text>
  <text x="472.0" y="526.0" text-anchor="middle" class="node-sub">osascript / notify-send</text>
  <rect x="692.0" y="104.0" width="204.0" height="106.0" rx="10.0" fill="#ffffff" stroke="#d1d5db" stroke-width="1.8" filter="url(#shadowSoft)"/>
  <text x="794.0" y="122.0" text-anchor="middle" class="node-type">STORE</text>
  <text x="794.0" y="163.0" text-anchor="middle" class="node-title">notifications.db</text>
  <text x="794.0" y="185.0" text-anchor="middle" class="node-sub">SQLite WAL · 7d / 10k</text>
  <rect x="660.0" y="278.0" width="236.0" height="92.0" rx="10.0" fill="#ffffff" stroke="#d1d5db" stroke-width="1.8" filter="url(#shadowSoft)"/>
  <text x="778.0" y="296.0" text-anchor="middle" class="node-type">AINB-CORE TUI</text>
  <text x="778.0" y="330.0" text-anchor="middle" class="node-title">Inbox screen</text>
  <text x="778.0" y="352.0" text-anchor="middle" class="node-sub">two-pane · poll-on-tick · key I</text>
  <rect x="660.0" y="456.0" width="236.0" height="84.0" rx="10.0" fill="#ffffff" stroke="#d1d5db" stroke-width="1.8" filter="url(#shadowSoft)"/>
  <text x="778.0" y="474.0" text-anchor="middle" class="node-type">SESSION LIST</text>
  <text x="778.0" y="504.0" text-anchor="middle" class="node-title">Sessions unread badge</text>
  <text x="778.0" y="526.0" text-anchor="middle" class="node-sub">unread_by_cwd to per-session N</text>
  <rect x="87.0" y="221.0" width="98" height="20" rx="6" fill="#ffffff" opacity="0.94"/>
  <text x="136.0" y="235.0" text-anchor="middle" class="arrow-label">stdin / argv</text>
  <rect x="287.0" y="294.0" width="70" height="20" rx="6" fill="#ffffff" opacity="0.94"/>
  <text x="322.0" y="308.0" text-anchor="middle" class="arrow-label">envelope</text>
  <rect x="104.5" y="399.0" width="63" height="20" rx="6" fill="#ffffff" opacity="0.94"/>
  <text x="136.0" y="413.0" text-anchor="middle" class="arrow-label">on fail</text>
  <rect x="426.0" y="230.0" width="56" height="20" rx="6" fill="#ffffff" opacity="0.94"/>
  <text x="454.0" y="244.0" text-anchor="middle" class="arrow-label">accept</text>
  <rect x="180.3" y="396.0" width="133" height="20" rx="6" fill="#ffffff" opacity="0.94"/>
  <text x="246.8" y="410.0" text-anchor="middle" class="arrow-label">replay at startup</text>
  <rect x="582.0" y="143.0" width="112" height="20" rx="6" fill="#ffffff" opacity="0.94"/>
  <text x="638.0" y="157.0" text-anchor="middle" class="arrow-label">insert + prune</text>
  <rect x="280.0" y="313.5" width="112" height="20" rx="6" fill="#ffffff" opacity="0.94"/>
  <text x="336.0" y="327.5" text-anchor="middle" class="arrow-label">if user-facing</text>
  <rect x="705.5" y="214.0" width="161" height="20" rx="6" fill="#ffffff" opacity="0.94"/>
  <text x="786.0" y="228.0" text-anchor="middle" class="arrow-label">list / mark / dismiss</text>
  <rect x="907.0" y="313.5" width="70" height="20" rx="6" fill="#ffffff" opacity="0.94"/>
  <text x="942.0" y="327.5" text-anchor="middle" class="arrow-label">unread N</text>
  <line x1="372.0" y1="600.0" x2="402.0" y2="600.0" stroke="#7c3aed" stroke-width="2.4" marker-end="url(#arrowA)"/>
  <text x="412.0" y="604.0" class="legend">hook control</text>
  <line x1="372.0" y1="622.0" x2="402.0" y2="622.0" stroke="#f97316" stroke-width="2.4" marker-end="url(#arrowE)"/>
  <text x="412.0" y="626.0" class="legend">envelope data</text>
  <line x1="372.0" y1="644.0" x2="402.0" y2="644.0" stroke="#10b981" stroke-width="2.4" marker-end="url(#arrowB)"/>
  <text x="412.0" y="648.0" class="legend">SQLite write</text>
  <line x1="372.0" y1="666.0" x2="402.0" y2="666.0" stroke="#2563eb" stroke-width="2.4" marker-end="url(#arrowC)"/>
  <text x="412.0" y="670.0" class="legend">store read</text>
  <line x1="372.0" y1="688.0" x2="402.0" y2="688.0" stroke="#7c3aed" stroke-width="2.4" marker-end="url(#arrowA)"/>
  <text x="412.0" y="692.0" class="legend">OS notify</text>
</svg>