<svg xmlns="http://www.w3.org/2000/svg" viewBox="0 0 960 700" width="960" height="700">
  <defs>
    <marker id="arrowA" markerWidth="10" markerHeight="7" refX="9" refY="3.5" orient="auto">
      <polygon points="0 0, 10 3.5, 0 7" fill="#7c3aed"/>
    </marker>
    <marker id="arrowB" markerWidth="10" markerHeight="7" refX="9" refY="3.5" orient="auto">
      <polygon points="0 0, 10 3.5, 0 7" fill="#10b981"/>
    </marker>
    <marker id="arrowC" markerWidth="10" markerHeight="7" refX="9" refY="3.5" orient="auto">
      <polygon points="0 0, 10 3.5, 0 7" fill="#2563eb"/>
    </marker>
    <marker id="arrowE" markerWidth="10" markerHeight="7" refX="9" refY="3.5" orient="auto">
      <polygon points="0 0, 10 3.5, 0 7" fill="#f97316"/>
    </marker>
    <marker id="arrowF" markerWidth="10" markerHeight="7" refX="9" refY="3.5" orient="auto">
      <polygon points="0 0, 10 3.5, 0 7" fill="#7c3aed"/>
    </marker>
    <marker id="arrowG" markerWidth="10" markerHeight="7" refX="9" refY="3.5" orient="auto">
      <polygon points="0 0, 10 3.5, 0 7" fill="#ef4444"/>
    </marker>
    <marker id="arrowH" markerWidth="10" markerHeight="7" refX="9" refY="3.5" orient="auto">
      <polygon points="0 0, 10 3.5, 0 7" fill="#6b7280"/>
    </marker>
    <filter id="shadowSoft" x="-20%" y="-20%" width="140%" height="160%">
      <feDropShadow dx="0" dy="3" stdDeviation="6" flood-color="#0f172a" flood-opacity="0.12"/>
    </filter>
    <filter id="shadowGlass" x="-20%" y="-20%" width="140%" height="160%">
      <feDropShadow dx="0" dy="10" stdDeviation="16" flood-color="#020617" flood-opacity="0.28"/>
    </filter>
    <style>
    text { font-family: 'Helvetica Neue', Helvetica, Arial, 'PingFang SC', 'Microsoft YaHei', sans-serif; }
    .title { font-size: 30px; font-weight: 700; fill: #111827; }
    .subtitle { font-size: 14px; font-weight: 500; fill: #6b7280; }
    .section { font-size: 13px; font-weight: 700; fill: #2563eb; letter-spacing: 1.4px; }
    .section-sub { font-size: 12px; font-weight: 500; fill: #94a3b8; }
    .node-title { font-size: 18px; font-weight: 700; fill: #111827; }
    .node-sub { font-size: 12px; font-weight: 500; fill: #6b7280; }
    .node-type { font-size: 12px; font-weight: 700; fill: #9ca3af; letter-spacing: 0.08em; }
    .arrow-label { font-size: 12px; font-weight: 600; fill: #6b7280; }
    .legend { font-size: 12px; font-weight: 500; fill: #6b7280; }
    .footnote { font-size: 12px; font-weight: 500; fill: #94a3b8; }
    </style>
  </defs>
  <rect width="960.0" height="700.0" fill="#ffffff"/>
  <text x="480.0" y="56" text-anchor="middle" class="title">reflect — Claude Code plugin</text>
  <text x="480.0" y="82" text-anchor="middle" class="subtitle">Lifecycle hooks capture corrections &amp; inject prior learnings · v3.6.0</text>
  <path d="M 135.0,300.0 L 135.0,138.0 L 300.0,138.0" fill="none" stroke="#7c3aed" stroke-width="2.4" marker-end="url(#arrowA)"/>
  <path d="M 210.0,345.0 L 230.4,345.0 L 279.6,268.0 L 300.0,268.0" fill="none" stroke="#7c3aed" stroke-width="2.4" marker-end="url(#arrowA)"/>
  <path d="M 210.0,345.0 L 230.4,345.0 L 279.6,398.0 L 300.0,398.0" fill="none" stroke="#7c3aed" stroke-width="2.4" marker-end="url(#arrowA)"/>
  <path d="M 135.0,390.0 L 135.0,410.4 L 279.6,528.0 L 300.0,528.0" fill="none" stroke="#7c3aed" stroke-width="2.4" marker-end="url(#arrowA)"/>
  <path d="M 135.0,390.0 L 135.0,410.4 L 279.6,640.0 L 300.0,640.0" fill="none" stroke="#7c3aed" stroke-width="2.4" marker-end="url(#arrowA)"/>
  <path d="M 500.0,138.0 L 520.4,138.0 L 559.6,158.0 L 580.0,158.0" fill="none" stroke="#f97316" stroke-width="2.4" marker-end="url(#arrowE)"/>
  <path d="M 500.0,268.0 L 680.0,268.0 L 680.0,206.0" fill="none" stroke="#f97316" stroke-width="2.4" marker-end="url(#arrowE)"/>
  <path d="M 500.0,398.0 L 520.4,398.0 L 559.6,518.0 L 580.0,518.0" fill="none" stroke="#10b981" stroke-width="2.4" marker-end="url(#arrowB)" stroke-dasharray="6,4"/>
  <path d="M 500.0,528.0 L 520.4,528.0 L 559.6,640.0 L 580.0,640.0" fill="none" stroke="#f97316" stroke-width="2.4" marker-end="url(#arrowE)"/>
  <path d="M 500.0,640.0 L 580.0,640.0" fill="none" stroke="#f97316" stroke-width="2.4" marker-end="url(#arrowE)"/>
  <path d="M 680.0,600.0 L 680.0,566.0" fill="none" stroke="#7c3aed" stroke-width="2.4" marker-end="url(#arrowA)"/>
  <path d="M 680.0,470.0 L 680.0,410.0" fill="none" stroke="#10b981" stroke-width="2.4" marker-end="url(#arrowB)"/>
  <path d="M 680.0,300.0 L 680.0,206.0" fill="none" stroke="#2563eb" stroke-width="2.4" marker-end="url(#arrowC)"/>
  <path d="M 680.0,110.0 L 680.0,89.6 L 135.0,279.6 L 135.0,300.0" fill="none" stroke="#ef4444" stroke-width="2.4" marker-end="url(#arrowG)" stroke-dasharray="6,4"/>
  <rect x="60.0" y="300.0" width="150.0" height="90.0" rx="10.0" fill="#ffffff" stroke="#d1d5db" stroke-width="1.8" filter="url(#shadowSoft)"/>
  <text x="135.0" y="318.0" text-anchor="middle" class="node-type">HARNESS</text>
  <text x="135.0" y="351.0" text-anchor="middle" class="node-title">Claude Code</text>
  <text x="135.0" y="373.0" text-anchor="middle" class="node-sub">loads plugin: skills + hooks</text>
  <rect x="300.0" y="90.0" width="200.0" height="96.0" rx="10.0" fill="#ffffff" stroke="#d1d5db" stroke-width="1.8" filter="url(#shadowSoft)"/>
  <text x="400.0" y="108.0" text-anchor="middle" class="node-type">HOOK</text>
  <text x="400.0" y="144.0" text-anchor="middle" class="node-title">SessionStart</text>
  <text x="400.0" y="166.0" text-anchor="middle" class="node-sub">recall inject + bg drain</text>
  <rect x="300.0" y="220.0" width="200.0" height="96.0" rx="10.0" fill="#ffffff" stroke="#d1d5db" stroke-width="1.8" filter="url(#shadowSoft)"/>
  <text x="400.0" y="238.0" text-anchor="middle" class="node-type">HOOK</text>
  <text x="400.0" y="274.0" text-anchor="middle" class="node-title">UserPromptSubmit</text>
  <text x="400.0" y="296.0" text-anchor="middle" class="node-sub">recall inject + mini-learn</text>
  <rect x="300.0" y="350.0" width="200.0" height="96.0" rx="10.0" fill="#ffffff" stroke="#d1d5db" stroke-width="1.8" filter="url(#shadowSoft)"/>
  <text x="400.0" y="368.0" text-anchor="middle" class="node-type">HOOK</text>
  <text x="400.0" y="404.0" text-anchor="middle" class="node-title">PostToolUse</text>
  <text x="400.0" y="426.0" text-anchor="middle" class="node-sub">arm mini-learning on fail</text>
  <rect x="300.0" y="480.0" width="200.0" height="96.0" rx="10.0" fill="#ffffff" stroke="#d1d5db" stroke-width="1.8" filter="url(#shadowSoft)"/>
  <text x="400.0" y="498.0" text-anchor="middle" class="node-type">HOOK</text>
  <text x="400.0" y="534.0" text-anchor="middle" class="node-title">Stop</text>
  <text x="400.0" y="556.0" text-anchor="middle" class="node-sub">enqueue short-session reflect</text>
  <rect x="300.0" y="600.0" width="200.0" height="80.0" rx="10.0" fill="#ffffff" stroke="#d1d5db" stroke-width="1.8" filter="url(#shadowSoft)"/>
  <text x="400.0" y="618.0" text-anchor="middle" class="node-type">HOOK</text>
  <text x="400.0" y="646.0" text-anchor="middle" class="node-title">PreCompact</text>
  <text x="400.0" y="668.0" text-anchor="middle" class="node-sub">enqueue on compaction</text>
  <rect x="580.0" y="470.0" width="200.0" height="96.0" rx="10.0" fill="#ffffff" stroke="#d1d5db" stroke-width="1.8" filter="url(#shadowSoft)"/>
  <text x="680.0" y="488.0" text-anchor="middle" class="node-type">SKILL</text>
  <text x="680.0" y="524.0" text-anchor="middle" class="node-title">/reflect</text>
  <text x="680.0" y="546.0" text-anchor="middle" class="node-sub">scan · classify · note + sidecar</text>
  <rect x="580.0" y="300.0" width="200.0" height="110.0" rx="10.0" fill="#ffffff" stroke="#d1d5db" stroke-width="1.8" filter="url(#shadowSoft)"/>
  <text x="680.0" y="318.0" text-anchor="middle" class="node-type">KNOWLEDGE BASE</text>
  <text x="680.0" y="361.0" text-anchor="middle" class="node-title">reflect-kb</text>
  <text x="680.0" y="383.0" text-anchor="middle" class="node-sub">GraphRAG + qmd BM25</text>
  <rect x="580.0" y="600.0" width="200.0" height="80.0" rx="10.0" fill="#ffffff" stroke="#d1d5db" stroke-width="1.8" filter="url(#shadowSoft)"/>
  <text x="680.0" y="618.0" text-anchor="middle" class="node-type">STATE</text>
  <text x="680.0" y="646.0" text-anchor="middle" class="node-title">pending queue</text>
  <text x="680.0" y="668.0" text-anchor="middle" class="node-sub">~/.reflect drain → /reflect</text>
  <rect x="580.0" y="110.0" width="200.0" height="96.0" rx="10.0" fill="#ffffff" stroke="#d1d5db" stroke-width="1.8" filter="url(#shadowSoft)"/>
  <text x="680.0" y="128.0" text-anchor="middle" class="node-type">SKILL</text>
  <text x="680.0" y="164.0" text-anchor="middle" class="node-title">/reflect:recall</text>
  <text x="680.0" y="186.0" text-anchor="middle" class="node-sub">hybrid search · top-3 rerank</text>
  <rect x="179.0" y="108.0" width="77" height="20" rx="6" fill="#ffffff" opacity="0.94"/>
  <text x="217.5" y="122.0" text-anchor="middle" class="arrow-label">lifecycle</text>
  <rect x="477.0" y="134.0" width="126" height="20" rx="6" fill="#ffffff" opacity="0.94"/>
  <text x="540.0" y="148.0" text-anchor="middle" class="arrow-label">query cwd/branch</text>
  <rect x="541.0" y="238.0" width="98" height="20" rx="6" fill="#ffffff" opacity="0.94"/>
  <text x="590.0" y="252.0" text-anchor="middle" class="arrow-label">query prompt</text>
  <rect x="487.5" y="444.0" width="105" height="20" rx="6" fill="#ffffff" opacity="0.94"/>
  <text x="540.0" y="458.0" text-anchor="middle" class="arrow-label">mini-learning</text>
  <rect x="508.5" y="554.0" width="63" height="20" rx="6" fill="#ffffff" opacity="0.94"/>
  <text x="540.0" y="568.0" text-anchor="middle" class="arrow-label">enqueue</text>
  <rect x="508.5" y="610.0" width="63" height="20" rx="6" fill="#ffffff" opacity="0.94"/>
  <text x="540.0" y="624.0" text-anchor="middle" class="arrow-label">enqueue</text>
  <rect x="637.5" y="569.0" width="49" height="20" rx="6" fill="#ffffff" opacity="0.94"/>
  <text x="662.0" y="583.0" text-anchor="middle" class="arrow-label">drain</text>
  <rect x="606.0" y="426.0" width="112" height="20" rx="6" fill="#ffffff" opacity="0.94"/>
  <text x="662.0" y="440.0" text-anchor="middle" class="arrow-label">note + sidecar</text>
  <rect x="654.0" y="239.0" width="112" height="20" rx="6" fill="#ffffff" opacity="0.94"/>
  <text x="710.0" y="253.0" text-anchor="middle" class="arrow-label">top-3 reranked</text>
  <rect x="351.5" y="186.6" width="112" height="20" rx="6" fill="#ffffff" opacity="0.94"/>
  <text x="407.5" y="200.6" text-anchor="middle" class="arrow-label">inject context</text>
  <line x1="42.0" y1="556.0" x2="72.0" y2="556.0" stroke="#7c3aed" stroke-width="2.4" marker-end="url(#arrowA)"/>
  <text x="82.0" y="560.0" class="legend">control / lifecycle</text>
  <line x1="42.0" y1="578.0" x2="72.0" y2="578.0" stroke="#f97316" stroke-width="2.4" marker-end="url(#arrowE)"/>
  <text x="82.0" y="582.0" class="legend">query / enqueue (data)</text>
  <line x1="42.0" y1="600.0" x2="72.0" y2="600.0" stroke="#10b981" stroke-width="2.4" marker-end="url(#arrowB)"/>
  <text x="82.0" y="604.0" class="legend">write to KB</text>
  <line x1="42.0" y1="622.0" x2="72.0" y2="622.0" stroke="#2563eb" stroke-width="2.4" marker-end="url(#arrowC)"/>
  <text x="82.0" y="626.0" class="legend">read from KB</text>
  <line x1="42.0" y1="644.0" x2="72.0" y2="644.0" stroke="#ef4444" stroke-width="2.4" marker-end="url(#arrowG)"/>
  <text x="82.0" y="648.0" class="legend">inject into context</text>
</svg>