<svg xmlns="http://www.w3.org/2000/svg" viewBox="0 0 960 700" width="960" height="700">
  <defs>
    <marker id="arrowA" markerWidth="10" markerHeight="7" refX="9" refY="3.5" orient="auto">
      <polygon points="0 0, 10 3.5, 0 7" fill="#7c3aed"/>
    </marker>
    <marker id="arrowB" markerWidth="10" markerHeight="7" refX="9" refY="3.5" orient="auto">
      <polygon points="0 0, 10 3.5, 0 7" fill="#10b981"/>
    </marker>
    <marker id="arrowC" markerWidth="10" markerHeight="7" refX="9" refY="3.5" orient="auto">
      <polygon points="0 0, 10 3.5, 0 7" fill="#2563eb"/>
    </marker>
    <marker id="arrowE" markerWidth="10" markerHeight="7" refX="9" refY="3.5" orient="auto">
      <polygon points="0 0, 10 3.5, 0 7" fill="#f97316"/>
    </marker>
    <marker id="arrowF" markerWidth="10" markerHeight="7" refX="9" refY="3.5" orient="auto">
      <polygon points="0 0, 10 3.5, 0 7" fill="#7c3aed"/>
    </marker>
    <marker id="arrowG" markerWidth="10" markerHeight="7" refX="9" refY="3.5" orient="auto">
      <polygon points="0 0, 10 3.5, 0 7" fill="#ef4444"/>
    </marker>
    <marker id="arrowH" markerWidth="10" markerHeight="7" refX="9" refY="3.5" orient="auto">
      <polygon points="0 0, 10 3.5, 0 7" fill="#6b7280"/>
    </marker>
    <filter id="shadowSoft" x="-20%" y="-20%" width="140%" height="160%">
      <feDropShadow dx="0" dy="3" stdDeviation="6" flood-color="#0f172a" flood-opacity="0.12"/>
    </filter>
    <filter id="shadowGlass" x="-20%" y="-20%" width="140%" height="160%">
      <feDropShadow dx="0" dy="10" stdDeviation="16" flood-color="#020617" flood-opacity="0.28"/>
    </filter>
    <style>
    text { font-family: 'Helvetica Neue', Helvetica, Arial, 'PingFang SC', 'Microsoft YaHei', sans-serif; }
    .title { font-size: 30px; font-weight: 700; fill: #111827; }
    .subtitle { font-size: 14px; font-weight: 500; fill: #6b7280; }
    .section { font-size: 13px; font-weight: 700; fill: #2563eb; letter-spacing: 1.4px; }
    .section-sub { font-size: 12px; font-weight: 500; fill: #94a3b8; }
    .node-title { font-size: 18px; font-weight: 700; fill: #111827; }
    .node-sub { font-size: 12px; font-weight: 500; fill: #6b7280; }
    .node-type { font-size: 12px; font-weight: 700; fill: #9ca3af; letter-spacing: 0.08em; }
    .arrow-label { font-size: 12px; font-weight: 600; fill: #6b7280; }
    .legend { font-size: 12px; font-weight: 500; fill: #6b7280; }
    .footnote { font-size: 12px; font-weight: 500; fill: #94a3b8; }
    </style>
  </defs>
  <rect width="960.0" height="700.0" fill="#ffffff"/>
  <text x="480.0" y="56" text-anchor="middle" class="title">session-reader — pure publisher data plane</text>
  <text x="480.0" y="82" text-anchor="middle" class="subtitle">scans provider session logs and chunk-publishes UsageData on sessions.usage_data</text>
  <path d="M 125.0,300.0 L 125.0,185.0 L 290.0,185.0" fill="none" stroke="#2563eb" stroke-width="2.4" marker-end="url(#arrowC)"/>
  <path d="M 395.0,240.0 L 395.0,300.0" fill="none" stroke="#f97316" stroke-width="2.4" marker-end="url(#arrowE)"/>
  <path d="M 395.0,410.0 L 395.0,470.0" fill="none" stroke="#10b981" stroke-width="2.4" marker-end="url(#arrowB)" stroke-dasharray="6,4"/>
  <path d="M 500.0,355.0 L 620.0,355.0" fill="none" stroke="#f97316" stroke-width="2.4" marker-end="url(#arrowE)"/>
  <path d="M 695.0,300.0 L 695.0,200.0 L 800.0,200.0" fill="none" stroke="#7c3aed" stroke-width="2.4" marker-end="url(#arrowA)"/>
  <path d="M 695.0,410.0 L 695.0,510.0 L 800.0,510.0" fill="none" stroke="#7c3aed" stroke-width="2.4" marker-end="url(#arrowA)"/>
  <path d="M 870.0,250.0 L 870.0,270.4 L 520.4,355.0 L 500.0,355.0" fill="none" stroke="#ef4444" stroke-width="2.4" marker-end="url(#arrowG)" stroke-dasharray="6,4"/>
  <rect x="30.0" y="300.0" width="190.0" height="130.0" rx="10.0" fill="#ffffff" stroke="#d1d5db" stroke-width="1.8" filter="url(#shadowSoft)"/>
  <text x="125.0" y="318.0" text-anchor="middle" class="node-type">FILESYSTEM RO</text>
  <text x="125.0" y="371.0" text-anchor="middle" class="node-title">Session logs</text>
  <text x="125.0" y="393.0" text-anchor="middle" class="node-sub">.claude · .codex · gemini</text>
  <rect x="290.0" y="130.0" width="210.0" height="110.0" rx="10.0" fill="#ffffff" stroke="#d1d5db" stroke-width="1.8" filter="url(#shadowSoft)"/>
  <text x="395.0" y="148.0" text-anchor="middle" class="node-type">SCAN + PARSE</text>
  <text x="395.0" y="191.0" text-anchor="middle" class="node-title">scanner</text>
  <text x="395.0" y="213.0" text-anchor="middle" class="node-sub">walk + parse per file</text>
  <rect x="290.0" y="470.0" width="210.0" height="110.0" rx="10.0" fill="#ffffff" stroke="#d1d5db" stroke-width="1.8" filter="url(#shadowSoft)"/>
  <text x="395.0" y="488.0" text-anchor="middle" class="node-type">WRITE_PLUGIN_DATA</text>
  <text x="395.0" y="531.0" text-anchor="middle" class="node-title">parse cache</text>
  <text x="395.0" y="553.0" text-anchor="middle" class="node-sub">(mtime,size) short-circuit</text>
  <rect x="290.0" y="300.0" width="210.0" height="110.0" rx="10.0" fill="#ffffff" stroke="#d1d5db" stroke-width="1.8" filter="url(#shadowSoft)"/>
  <text x="395.0" y="318.0" text-anchor="middle" class="node-type">MSGPACK CHUNKER</text>
  <text x="395.0" y="361.0" text-anchor="middle" class="node-title">chunk_usage_data</text>
  <text x="395.0" y="383.0" text-anchor="middle" class="node-sub">split tail vecs &lt; 2 MiB</text>
  <rect x="620.0" y="300.0" width="150.0" height="110.0" rx="10.0" fill="#ffffff" stroke="#d1d5db" stroke-width="1.8" filter="url(#shadowSoft)"/>
  <text x="695.0" y="318.0" text-anchor="middle" class="node-type">EVENT_BUS</text>
  <text x="695.0" y="361.0" text-anchor="middle" class="node-title">host event bus</text>
  <text x="695.0" y="383.0" text-anchor="middle" class="node-sub">per-topic latest</text>
  <rect x="800.0" y="150.0" width="140.0" height="100.0" rx="10.0" fill="#ffffff" stroke="#d1d5db" stroke-width="1.8" filter="url(#shadowSoft)"/>
  <text x="870.0" y="168.0" text-anchor="middle" class="node-type">SUBSCRIBER</text>
  <text x="870.0" y="206.0" text-anchor="middle" class="node-title">burndown</text>
  <text x="870.0" y="228.0" text-anchor="middle" class="node-sub">Analytics screen</text>
  <rect x="800.0" y="460.0" width="140.0" height="100.0" rx="10.0" fill="#ffffff" stroke="#d1d5db" stroke-width="1.8" filter="url(#shadowSoft)"/>
  <text x="870.0" y="478.0" text-anchor="middle" class="node-type">CONSUMER</text>
  <text x="870.0" y="516.0" text-anchor="middle" class="node-title">ainb host</text>
  <text x="870.0" y="538.0" text-anchor="middle" class="node-sub">snapshot store</text>
  <rect x="165.5" y="155.0" width="84" height="20" rx="6" fill="#ffffff" opacity="0.94"/>
  <text x="207.5" y="169.0" text-anchor="middle" class="arrow-label">read JSONL</text>
  <rect x="338.5" y="256.0" width="77" height="20" rx="6" fill="#ffffff" opacity="0.94"/>
  <text x="377.0" y="270.0" text-anchor="middle" class="arrow-label">UsageData</text>
  <rect x="328.0" y="426.0" width="98" height="20" rx="6" fill="#ffffff" opacity="0.94"/>
  <text x="377.0" y="440.0" text-anchor="middle" class="arrow-label">cache parses</text>
  <rect x="493.5" y="341.0" width="133" height="20" rx="6" fill="#ffffff" opacity="0.94"/>
  <text x="560.0" y="355.0" text-anchor="middle" class="arrow-label">publish (chunked)</text>
  <rect x="628.0" y="236.0" width="98" height="20" rx="6" fill="#ffffff" opacity="0.94"/>
  <text x="677.0" y="250.0" text-anchor="middle" class="arrow-label">handle_event</text>
  <rect x="628.0" y="446.0" width="98" height="20" rx="6" fill="#ffffff" opacity="0.94"/>
  <text x="677.0" y="460.0" text-anchor="middle" class="arrow-label">snapshot/get</text>
  <rect x="635.7" y="298.7" width="119" height="20" rx="6" fill="#ffffff" opacity="0.94"/>
  <text x="695.2" y="312.7" text-anchor="middle" class="arrow-label">refresh_request</text>
  <line x1="42.0" y1="556.0" x2="72.0" y2="556.0" stroke="#2563eb" stroke-width="2.4" marker-end="url(#arrowC)"/>
  <text x="82.0" y="560.0" class="legend">read sessions</text>
  <line x1="42.0" y1="578.0" x2="72.0" y2="578.0" stroke="#f97316" stroke-width="2.4" marker-end="url(#arrowE)"/>
  <text x="82.0" y="582.0" class="legend">UsageData chunks</text>
  <line x1="42.0" y1="600.0" x2="72.0" y2="600.0" stroke="#10b981" stroke-width="2.4" marker-end="url(#arrowB)"/>
  <text x="82.0" y="604.0" class="legend">cache write</text>
  <line x1="42.0" y1="622.0" x2="72.0" y2="622.0" stroke="#7c3aed" stroke-width="2.4" marker-end="url(#arrowA)"/>
  <text x="82.0" y="626.0" class="legend">event delivery</text>
  <line x1="42.0" y1="644.0" x2="72.0" y2="644.0" stroke="#ef4444" stroke-width="2.4" marker-end="url(#arrowG)"/>
  <text x="82.0" y="648.0" class="legend">refresh trigger</text>
</svg>